<?xml version="1.0"?>
<svg xmlns="http://www.w3.org/2000/svg" xmlns:xlink="http://www.w3.org/1999/xlink" version="1.1" id="Capa_1" x="0px" y="0px" viewBox="0 0 512 512" style="enable-background:new 0 0 512 512;" xml:space="preserve" width="512px" height="512px"><g><g>
	<g>
		<path d="M243.296,2.233c-64.987,0-126.084,25.308-172.037,71.26C25.307,119.445,0,180.542,0,245.529s25.307,126.084,71.26,172.037    s107.05,71.26,172.037,71.26c16.12,0,32-1.561,47.47-4.604c-24.638-28.974-43.073-62.012-54.83-98.347l-19.188-59.297    c-34.072-11.189-58.753-43.282-58.753-81.049c0-47.035,38.266-85.301,85.301-85.301c15.966,0,30.914,4.419,43.705,12.083v-24.772    c0-23.776,19.343-43.118,43.118-43.118c4.578,0,8.988,0.724,13.131,2.051v-5.26c0-23.776,19.343-43.118,43.118-43.118    c5.46,0,10.68,1.031,15.492,2.89C357.757,22.971,302.121,2.233,243.296,2.233z" data-original="#000000" class="active-path" fill="#000000"/>
	</g>
</g><g>
	<g>
		<path d="M243.298,190.216c-30.501,0-55.315,24.814-55.315,55.313c0,14.485,5.604,27.68,14.748,37.551    c-5.55-20.422,3.825-41.83,22.869-51.54l5.012-2.556c0.232-0.118,0.467-0.23,0.704-0.336c20.368-9.083,43.824-1.859,55.687,16.384    v-4.325v-29.02C276.875,198.638,261.056,190.216,243.298,190.216z" data-original="#000000" class="active-path" fill="#000000"/>
	</g>
</g><g>
	<g>
		<path d="M498.869,160.654c-7.241,0-13.131,5.891-13.131,13.131v93.042c0,8.281-6.713,14.994-14.994,14.994    c-8.281,0-14.994-6.713-14.994-14.994V115.274c0-7.241-5.891-13.131-13.131-13.131c-7.241,0-13.131,5.891-13.131,13.131v151.553    c0,8.281-6.713,14.994-14.994,14.994c-8.281,0-14.994-6.713-14.994-14.994V115.274v-14.062c0-7.241-5.891-13.131-13.131-13.131    c-7.24,0-13.131,5.891-13.131,13.131v166.955c0,8.281-6.713,14.994-14.994,14.994c-8.281,0-14.994-6.713-14.994-14.994V147.539    c0-7.241-5.891-13.131-13.131-13.131c-7.241,0-13.131,5.891-13.131,13.131v160.873c0,6.965-4.796,13.013-11.578,14.599    c-6.779,1.588-13.762-1.705-16.853-7.947l-25.792-52.096c-3.479-7.028-11.748-10.085-18.942-7.061l-4.604,2.348    c-6.497,3.313-9.583,10.754-7.338,17.694l32.583,100.694c11.367,35.129,29.685,66.828,54.445,94.218l15.443,17.084    c2.492,2.756,3.871,6.34,3.871,10.055v11.767h140.99l0.104-11.899c0.021-2.427,0.632-4.812,1.778-6.951    c20.137-37.57,30.791-79.96,30.811-122.586L512,173.778C512,166.544,506.109,160.654,498.869,160.654z" data-original="#000000" class="active-path" fill="#000000"/>
	</g>
</g></g> </svg>
