<?xml version="1.0" standalone="no"?>
<!DOCTYPE svg PUBLIC "-//W3C//DTD SVG 20010904//EN"
 "http://www.w3.org/TR/2001/REC-SVG-20010904/DTD/svg10.dtd">
<svg version="1.0" xmlns="http://www.w3.org/2000/svg"
 width="600.000000pt" height="600.000000pt" viewBox="0 0 600.000000 600.000000"
 preserveAspectRatio="xMidYMid meet">
<metadata>
Created by potrace 1.11, written by Peter Selinger 2001-2013
</metadata>
<g transform="translate(0.000000,600.000000) scale(0.100000,-0.100000)"
fill="#000000" stroke="none">
<path d="M2818 5945 c-1 -1 -43 -6 -92 -10 -50 -4 -99 -9 -110 -11 -12 -3 -39
-7 -61 -10 -22 -3 -71 -12 -110 -20 -38 -8 -83 -17 -100 -19 -16 -2 -30 -4
-30 -5 0 -1 -7 -3 -15 -5 -121 -30 -349 -105 -399 -131 -14 -8 -34 -14 -43
-14 -10 0 -18 -4 -18 -8 0 -5 -6 -9 -12 -9 -17 0 -278 -131 -299 -149 -8 -8
-19 -14 -23 -14 -4 0 -34 -18 -67 -40 -33 -22 -65 -40 -70 -40 -5 0 -9 -4 -9
-10 0 -5 -5 -10 -11 -10 -6 0 -25 -11 -43 -25 -38 -31 -38 -31 -106 -80 -30
-22 -60 -44 -66 -50 -6 -5 -42 -37 -79 -70 -83 -73 -243 -232 -276 -275 -13
-18 -31 -39 -40 -48 -9 -10 -49 -60 -88 -112 -39 -52 -74 -99 -78 -105 -23
-30 -83 -126 -83 -132 0 -3 -6 -14 -14 -22 -30 -34 -136 -242 -195 -382 -38
-91 -114 -310 -125 -361 -3 -13 -10 -41 -16 -63 -6 -22 -13 -49 -16 -60 -3
-11 -7 -29 -8 -40 -2 -11 -11 -58 -20 -105 -16 -84 -18 -104 -33 -250 -14
-144 -6 -600 12 -630 1 -3 6 -32 9 -65 4 -33 11 -76 16 -95 5 -19 11 -52 14
-74 4 -21 8 -42 11 -46 2 -3 7 -22 10 -41 13 -75 114 -388 144 -447 22 -43 56
-116 56 -121 1 -7 55 -114 98 -191 54 -98 194 -306 262 -389 135 -164 295
-327 420 -426 28 -22 52 -43 55 -46 9 -12 95 -75 170 -125 174 -117 307 -189
525 -284 134 -59 444 -155 532 -165 11 -2 29 -6 40 -9 10 -3 50 -10 88 -16 39
-5 80 -12 92 -14 100 -20 488 -28 658 -12 49 4 92 9 95 11 3 2 28 6 55 9 28 3
61 8 75 11 14 3 41 8 60 11 121 19 463 121 537 159 15 8 33 15 39 15 15 0 263
122 339 167 293 173 524 363 740 608 33 37 66 74 73 81 6 7 12 17 12 22 0 6 4
12 8 14 23 8 186 248 261 381 132 236 269 590 305 789 2 15 7 31 9 35 3 5 8
33 12 63 4 30 8 58 10 61 2 3 6 25 9 50 3 24 8 54 10 67 25 122 26 633 2 752
-1 8 -6 38 -10 65 -14 91 -31 179 -46 234 -5 20 -11 48 -14 63 -2 15 -9 42
-15 60 -6 18 -24 74 -40 123 -84 261 -209 514 -374 760 -22 33 -43 62 -46 65
-4 3 -27 33 -53 68 -82 112 -255 296 -377 402 -35 30 -69 60 -75 65 -141 128
-494 341 -736 444 -122 52 -349 126 -450 146 -8 2 -15 4 -15 5 0 1 -7 3 -15 5
-44 9 -139 27 -165 31 -16 3 -41 7 -55 10 -14 2 -47 7 -75 10 -27 3 -63 7 -80
10 -33 6 -461 14 -467 9z m250 -2824 c51 -27 79 -99 62 -162 -9 -34 -60 -88
-84 -90 -6 0 -22 -2 -35 -5 -40 -7 -89 15 -118 53 -52 69 -26 176 51 208 34
15 92 13 124 -4z"/>
</g>
</svg>
